<svg xmlns="http://www.w3.org/2000/svg" viewBox="1056.307 2182.25 22.387 10.5">
  <defs>
    <style>
      .cls-1 {
        fill: #5d58de;
      }
    </style>
  </defs>
  <path id="Union_1" data-name="Union 1" class="cls-1" d="M314.156-1034.389l-5.8-4.7a.415.415,0,0,1-.149-.385.42.42,0,0,1-.007-.077.416.416,0,0,1,.007-.076.415.415,0,0,1,.149-.385l5.8-4.7a.415.415,0,0,1,.583.061.415.415,0,0,1-.061.583l-5.062,4.1h20.556a.415.415,0,0,1,.415.415.414.414,0,0,1-.415.415H309.616l5.062,4.1a.415.415,0,0,1,.061.583.415.415,0,0,1-.323.153A.413.413,0,0,1,314.156-1034.389Z" transform="translate(1386.894 1147.953) rotate(180)"/>
</svg>
